<svg xmlns:xlink="http://www.w3.org/1999/xlink" xmlns="http://www.w3.org/2000/svg" width="24" height="24" viewBox="0 0 24 24" fill="none" stroke="currentColor" stroke-width="2" stroke-linecap="round" stroke-linejoin="round" class="lucide lucide-book-open w-4 h-4" data-lov-id="src/components/BlogSection.tsx:73:18" data-lov-name="BookOpen" data-component-path="src/components/BlogSection.tsx" data-component-line="73" data-component-file="BlogSection.tsx" data-component-name="BookOpen" data-component-content="%7B%22className%22%3A%22w-4%20h-4%22%7D">
                                <path d="M12 7v14" stroke="#6B7280" fill="none" stroke-width="2px"></path>
                                <path d="M3 18a1 1 0 0 1-1-1V4a1 1 0 0 1 1-1h5a4 4 0 0 1 4 4 4 4 0 0 1 4-4h5a1 1 0 0 1 1 1v13a1 1 0 0 1-1 1h-6a3 3 0 0 0-3 3 3 3 0 0 0-3-3z" stroke="#6B7280" fill="none" stroke-width="2px"></path>
                            </svg>