<svg xmlns:xlink="http://www.w3.org/1999/xlink" xmlns="http://www.w3.org/2000/svg" width="24" height="24" viewBox="0 0 24 24" fill="none" stroke="currentColor" stroke-width="2" stroke-linecap="round" stroke-linejoin="round" class="lucide lucide-qr-code w-full h-full text-green-600" data-lov-id="src/components/ui/qr-code.tsx:39:6" data-lov-name="QrCode" data-component-path="src/components/ui/qr-code.tsx" data-component-line="39" data-component-file="qr-code.tsx" data-component-name="QrCode" data-component-content="%7B%22className%22%3A%22w-full%20h-full%20text-green-600%22%7D">
                                            <rect width="5" height="5" x="3" y="3" rx="1" stroke="#16A34A" fill="none" stroke-width="2px"></rect>
                                            <rect width="5" height="5" x="16" y="3" rx="1" stroke="#16A34A" fill="none" stroke-width="2px"></rect>
                                            <rect width="5" height="5" x="3" y="16" rx="1" stroke="#16A34A" fill="none" stroke-width="2px"></rect>
                                            <path d="M21 16h-3a2 2 0 0 0-2 2v3" stroke="#16A34A" fill="none" stroke-width="2px"></path>
                                            <path d="M21 21v.01" stroke="#16A34A" fill="none" stroke-width="2px"></path>
                                            <path d="M12 7v3a2 2 0 0 1-2 2H7" stroke="#16A34A" fill="none" stroke-width="2px"></path>
                                            <path d="M3 12h.01" stroke="#16A34A" fill="none" stroke-width="2px"></path>
                                            <path d="M12 3h.01" stroke="#16A34A" fill="none" stroke-width="2px"></path>
                                            <path d="M12 16v.01" stroke="#16A34A" fill="none" stroke-width="2px"></path>
                                            <path d="M16 12h1" stroke="#16A34A" fill="none" stroke-width="2px"></path>
                                            <path d="M21 12v.01" stroke="#16A34A" fill="none" stroke-width="2px"></path>
                                            <path d="M12 21v-1" stroke="#16A34A" fill="none" stroke-width="2px"></path>
                                        </svg>